<svg xmlns="http://www.w3.org/2000/svg" version="1.1" xmlns:xlink="http://www.w3.org/1999/xlink" xmlns:svgjs="http://svgjs.dev/svgjs" width="1000" height="207" viewBox="0 0 1000 207"><g transform="matrix(1,0,0,1,-0.6060605889659882,-0.42655961931993147)"><svg viewBox="0 0 396 82" data-background-color="#ffffff" preserveAspectRatio="xMidYMid meet" height="207" width="1000" xmlns="http://www.w3.org/2000/svg" xmlns:xlink="http://www.w3.org/1999/xlink"><g id="tight-bounds" transform="matrix(1,0,0,1,0.23999999323052634,0.1697375360465685)"><svg viewBox="0 0 395.52 81.66128715581702" height="81.66128715581702" width="395.52"><g><svg viewBox="0 0 564.00117902061 116.44686042733971" height="81.66128715581702" width="395.52"><g transform="matrix(1,0,0,1,168.4811790206101,35.98377008621766)"><svg viewBox="0 0 395.5199999999999 44.4793202549044" height="44.4793202549044" width="395.5199999999999"><g id="textblocktransform"><svg viewBox="0 0 395.5199999999999 44.4793202549044" height="44.4793202549044" width="395.5199999999999" id="textblock"><g><svg viewBox="0 0 395.5199999999999 44.4793202549044" height="44.4793202549044" width="395.5199999999999"><g transform="matrix(1,0,0,1,0,0)"><svg width="395.5199999999999" viewBox="2.2699999809265137 -42.189998626708984 390.75 43.94999694824219" height="44.4793202549044" data-palette-color="#8bc53f"><path d="M40.94 0L40.94-40.43 42.7-40.43 42.7 0 40.94 0ZM2.27 0L2.27-40.43 4.03-40.43 4.03 0 2.27 0ZM37.43 0L37.43-40.43 39.18-40.43 39.18 0 37.43 0ZM33.91 0L33.91-40.43 35.67-40.43 35.67 0 33.91 0ZM30.4-24.63L30.4-40.43 32.15-40.43 32.15 0 30.4 0 30.4-15.84 14.58-15.84 14.58 0 12.82 0 12.82-40.43 14.58-40.43 14.58-24.63 30.4-24.63ZM9.3 0L9.3-40.43 11.06-40.43 11.06 0 9.3 0ZM5.79 0L5.79-40.43 7.54-40.43 7.54 0 5.79 0ZM14.58-17.6L30.4-17.6 30.4-19.36 14.58-19.36 14.58-17.6ZM14.58-21.12L30.4-21.12 30.4-22.88 14.58-22.88 14.58-21.12ZM75.8-17.77L75.8-17.77 75.8-40.43 77.56-40.43 77.56-17.77Q77.56-14.06 74.63-11.43 71.7-8.79 67.6-8.79 63.5-8.79 60.57-11.43 57.64-14.06 57.64-17.77L57.64-17.77 57.64-40.43 59.4-40.43 59.4-17.77Q59.4-14.79 61.8-12.67 64.21-10.55 67.6-10.55 70.99-10.55 73.4-12.67 75.8-14.79 75.8-17.77ZM79.32-17.77L79.32-17.77 79.32-40.43 81.08-40.43 81.08-17.77Q81.08-15.23 80-12.93 78.93-10.62 77.12-8.94 75.31-7.25 72.82-6.26 70.33-5.27 67.6-5.27 64.87-5.27 62.38-6.26 59.89-7.25 58.08-8.94 56.27-10.62 55.2-12.93 54.12-15.23 54.12-17.77L54.12-17.77 54.12-40.43 55.88-40.43 55.88-17.77Q55.88-14.87 57.46-12.39 59.03-9.91 61.73-8.47 64.43-7.03 67.6-7.03 70.77-7.03 73.47-8.47 76.17-9.91 77.74-12.39 79.32-14.87 79.32-17.77ZM82.83-17.77L82.83-17.77 82.83-40.43 84.59-40.43 84.59-17.77Q84.59-14.53 83.24-11.56 81.88-8.59 79.61-6.45 77.34-4.3 74.19-3.03 71.04-1.76 67.6-1.76 64.16-1.76 61.01-3.03 57.86-4.3 55.59-6.45 53.32-8.59 51.96-11.56 50.61-14.53 50.61-17.77L50.61-17.77 50.61-40.43 52.37-40.43 52.37-17.77Q52.37-13.92 54.42-10.63 56.47-7.35 59.97-5.43 63.47-3.52 67.6-3.52 71.73-3.52 75.23-5.43 78.73-7.35 80.78-10.63 82.83-13.92 82.83-17.77ZM86.35-17.77L86.35-17.77 86.35-40.43 88.11-40.43 88.11-17.77Q88.11-12.5 85.35-8 82.59-3.49 77.87-0.87 73.14 1.76 67.6 1.76 62.06 1.76 57.33-0.87 52.61-3.49 49.85-8 47.09-12.5 47.09-17.77L47.09-17.77 47.09-40.43 48.85-40.43 48.85-17.77Q48.85-14.18 50.34-10.89 51.83-7.59 54.34-5.21 56.86-2.83 60.34-1.42 63.82 0 67.6 0 71.38 0 74.86-1.42 78.34-2.83 80.86-5.21 83.37-7.59 84.86-10.89 86.35-14.18 86.35-17.77ZM121.31-40.43L121.31-19.46 119.55-22.36 119.55-40.43 121.31-40.43ZM124.82-40.43L124.82-13.7 123.07-16.65 123.07-40.43 124.82-40.43ZM128.34-40.43L128.34-7.86 126.58-10.84 126.58-40.43 128.34-40.43ZM103.14 0L103.14-20.97 104.9-18.07 104.9 0 103.14 0ZM99.63 0L99.63-26.73 101.39-23.78 101.39 0 99.63 0ZM96.11 0L96.11-32.57 97.87-29.59 97.87 0 96.11 0ZM121.58 0L96.72-40.43 98.77-40.43 123.63 0 121.58 0ZM125.68 0L100.87-40.43 102.95-40.43 127.78 0 125.68 0ZM129.78 0L105-40.43 107.05-40.43 130.1-2.86 130.1-40.43 131.86-40.43 131.86 0Q131.86 0 129.78 0L129.78 0ZM117.45 0L94.36-37.57 94.36 0 92.6 0 92.6-40.43Q92.6-40.43 94.7-40.43L94.7-40.43 119.48 0 117.45 0ZM168.79 0L168.79-21.12 170.55-21.12 170.55 0 168.79 0ZM175.82 0L175.82-21.12 177.58-21.12 177.58 0 175.82 0ZM172.31 0L172.31-21.12 174.06-21.12 174.06 0 172.31 0ZM165.28-21.12L167.03-21.12 167.03 0Q162.39 1.76 157.41 1.76L157.41 1.76Q153.09 1.76 149.14 0.17 145.18-1.42 142.18-4.24 139.18-7.06 137.38-11.22 135.59-15.38 135.59-20.21L135.59-20.21Q135.59-24.68 137.33-28.75 139.08-32.81 142.02-35.75 144.96-38.7 149.03-40.44 153.09-42.19 157.56-42.19L157.56-42.19Q163.13-42.19 167.91-39.6 172.7-37.01 175.72-32.57L175.72-32.57 174.26-31.62Q171.48-35.69 167.07-38.06 162.66-40.43 157.56-40.43L157.56-40.43Q153.46-40.43 149.71-38.83 145.96-37.23 143.25-34.52 140.54-31.81 138.95-28.06 137.35-24.32 137.35-20.21L137.35-20.21Q137.35-15.8 138.99-11.96 140.64-8.13 143.39-5.54 146.14-2.95 149.77-1.48 153.41 0 157.34 0L157.34 0Q161.47 0 165.28-1.29L165.28-1.29 165.28-2.98Q161.64-1.76 157.63-1.76L157.63-1.76Q154.73-1.76 151.98-2.58 149.24-3.39 146.9-4.99 144.57-6.59 142.83-8.8 141.08-11.01 140.09-13.95 139.1-16.89 139.1-20.21L139.1-20.21Q139.1-25.22 141.58-29.47 144.06-33.72 148.31-36.19 152.56-38.67 157.56-38.67L157.56-38.67Q162.25-38.67 166.28-36.49 170.31-34.3 172.84-30.57L172.84-30.57 171.38-29.61Q169.08-32.98 165.43-34.95 161.78-36.91 157.56-36.91L157.56-36.91Q154.17-36.91 151.07-35.6 147.97-34.28 145.73-32.04 143.5-29.81 142.18-26.71 140.86-23.61 140.86-20.21L140.86-20.21Q140.86-17.16 141.75-14.49 142.64-11.82 144.22-9.83 145.79-7.84 147.89-6.41 149.99-4.98 152.47-4.25 154.95-3.52 157.56-3.52L157.56-3.52Q161.61-3.52 165.28-4.88L165.28-4.88 165.28-6.64Q161.66-5.25 157.73-5.25L157.73-5.25Q154.75-5.25 152.04-6.26 149.33-7.28 147.22-9.13 145.11-10.99 143.86-13.87 142.62-16.75 142.62-20.21L142.62-20.21Q142.62-24.27 144.62-27.71 146.62-31.15 150.07-33.15 153.51-35.16 157.56-35.16L157.56-35.16Q161.35-35.16 164.6-33.4 167.86-31.64 169.91-28.61L169.91-28.61 168.45-27.66Q166.64-30.3 163.77-31.85 160.91-33.4 157.56-33.4L157.56-33.4Q153.97-33.4 150.94-31.63 147.92-29.86 146.15-26.83 144.38-23.8 144.38-20.21L144.38-20.21Q144.38-17.72 145.09-15.58 145.79-13.43 147.04-11.87 148.28-10.3 149.96-9.2 151.63-8.11 153.56-7.56 155.49-7.01 157.56-7.01L157.56-7.01Q161.69-7.01 165.28-8.64L165.28-8.64 165.28-10.33Q161.81-8.79 157.78-8.79L157.78-8.79Q155.46-8.79 153.41-9.5 151.36-10.21 149.71-11.57 148.06-12.94 147.1-15.17 146.14-17.41 146.14-20.21L146.14-20.21Q146.14-22.53 147.04-24.65 147.94-26.76 149.48-28.3 151.02-29.83 153.13-30.74 155.24-31.64 157.56-31.64L157.56-31.64Q160.47-31.64 162.96-30.29 165.45-28.93 167.01-26.61L167.01-26.61 165.57-25.66Q164.25-27.61 162.14-28.75 160.03-29.88 157.56-29.88L157.56-29.88Q153.56-29.88 150.72-27.05 147.89-24.22 147.89-20.21L147.89-20.21Q147.89-17.75 148.7-15.86 149.5-13.96 150.91-12.83 152.31-11.69 154.03-11.12 155.75-10.55 157.73-10.55L157.73-10.55Q161.78-10.55 165.28-12.23L165.28-12.23 165.28-21.12ZM195.18-18.36L195.18-20.12 205.78-20.12Q208.19-20.12 209.87-21.68 211.54-23.24 211.54-26.12L211.54-26.12Q211.54-28.25 209.78-29.94 208.02-31.64 205.78-31.64L205.78-31.64 190.69-31.64 190.69 0 188.93 0 188.93-33.4 205.78-33.4Q208.75-33.4 211.03-31.19 213.3-28.98 213.3-26.12L213.3-26.12Q213.3-22.61 211.1-20.48 208.9-18.36 205.78-18.36L205.78-18.36 195.18-18.36ZM195.18-14.84L195.18-16.6 205.78-16.6Q209.58-16.6 212.32-19.27 215.05-21.95 215.05-26.12L215.05-26.12Q215.05-29.71 212.26-32.43 209.46-35.16 205.78-35.16L205.78-35.16 187.17-35.16 187.17 0 185.41 0 185.41-36.91 205.78-36.91Q208.68-36.91 211.23-35.42 213.78-33.94 215.3-31.43 216.81-28.93 216.81-26.12L216.81-26.12Q216.81-21.31 213.55-18.08 210.29-14.84 205.78-14.84L205.78-14.84 195.18-14.84ZM195.18-11.33L195.18-13.09 205.78-13.09Q209.19-13.09 212.12-14.77 215.05-16.46 216.81-19.47 218.57-22.49 218.57-26.12L218.57-26.12Q218.57-29.42 216.82-32.31 215.08-35.21 212.12-36.94 209.17-38.67 205.78-38.67L205.78-38.67 183.66-38.67 183.66 0 181.9 0 181.9-40.43 205.78-40.43Q209.61-40.43 212.98-38.46 216.35-36.5 218.34-33.19 220.33-29.88 220.33-26.12L220.33-26.12Q220.33-21.78 218.46-18.48 216.59-15.19 213.39-13.33L213.39-13.33 217.93 0 216.08 0 211.73-12.5Q210.76-12.11 210.24-11.96L210.24-11.96 214.32 0 212.47 0 208.49-11.55Q208.27-11.5 206.92-11.38L206.92-11.38 210.71 0 208.85 0 205.12-11.33 203.53-11.33 207.09 0 205.24 0 201.65-11.33 195.18-11.33ZM194.2-28.13L194.2 0 192.45 0 192.45-29.88 205.78-29.88Q207.41-29.88 208.6-28.77 209.78-27.66 209.78-26.12L209.78-26.12Q209.78-21.88 205.78-21.88L205.78-21.88 195.18-21.88 195.18-23.63 205.78-23.63Q206.83-23.63 207.42-24.18 208.02-24.73 208.02-26.12L208.02-26.12Q208.02-26.98 207.38-27.55 206.73-28.13 205.78-28.13L205.78-28.13 194.2-28.13ZM227.94-40.43L237.61-20.34 236.73-18.41 226.18-40.43 227.94-40.43ZM231.46-40.43L239.37-24.19 238.46-22.27 229.7-40.43 231.46-40.43ZM234.97-40.43L241.13-28.03 240.25-26.1 233.22-40.43 234.97-40.43ZM238.9 0L238.9-13.62 251.62-40.43 253.38-40.43 240.66-13.62 240.66 0 238.9 0ZM242.42 0L242.42-13.62 255.14-40.43 256.9-40.43 244.18-13.62 244.18 0 242.42 0ZM245.93 0L245.93-13.62 258.65-40.43 260.41-40.43 247.69-13.62 247.69 0 245.93 0ZM224.43-40.43L236.27-15.48 248.11-40.43 249.87-40.43 237.15-13.62 237.15 0 235.39 0 235.39-13.62 222.67-40.43 224.43-40.43ZM302.21 0L302.21-40.43 303.96-40.43 303.96 0 302.21 0ZM263.53 0L263.53-40.43 265.29-40.43 265.29 0 263.53 0ZM298.69 0L298.69-40.43 300.45-40.43 300.45 0 298.69 0ZM295.18 0L295.18-40.43 296.93-40.43 296.93 0 295.18 0ZM291.66-24.63L291.66-40.43 293.42-40.43 293.42 0 291.66 0 291.66-15.84 275.84-15.84 275.84 0 274.08 0 274.08-40.43 275.84-40.43 275.84-24.63 291.66-24.63ZM270.57 0L270.57-40.43 272.32-40.43 272.32 0 270.57 0ZM267.05 0L267.05-40.43 268.81-40.43 268.81 0 267.05 0ZM275.84-17.6L291.66-17.6 291.66-19.36 275.84-19.36 275.84-17.6ZM275.84-21.12L291.66-21.12 291.66-22.88 275.84-22.88 275.84-21.12ZM337.07-17.77L337.07-17.77 337.07-40.43 338.83-40.43 338.83-17.77Q338.83-14.06 335.9-11.43 332.97-8.79 328.86-8.79 324.76-8.79 321.83-11.43 318.9-14.06 318.9-17.77L318.9-17.77 318.9-40.43 320.66-40.43 320.66-17.77Q320.66-14.79 323.07-12.67 325.47-10.55 328.86-10.55 332.26-10.55 334.66-12.67 337.07-14.79 337.07-17.77ZM340.58-17.77L340.58-17.77 340.58-40.43 342.34-40.43 342.34-17.77Q342.34-15.23 341.27-12.93 340.19-10.62 338.39-8.94 336.58-7.25 334.09-6.26 331.6-5.27 328.86-5.27 326.13-5.27 323.64-6.26 321.15-7.25 319.34-8.94 317.54-10.62 316.46-12.93 315.39-15.23 315.39-17.77L315.39-17.77 315.39-40.43 317.15-40.43 317.15-17.77Q317.15-14.87 318.72-12.39 320.3-9.91 322.99-8.47 325.69-7.03 328.86-7.03 332.04-7.03 334.74-8.47 337.43-9.91 339.01-12.39 340.58-14.87 340.58-17.77ZM344.1-17.77L344.1-17.77 344.1-40.43 345.86-40.43 345.86-17.77Q345.86-14.53 344.5-11.56 343.15-8.59 340.88-6.45 338.61-4.3 335.46-3.03 332.31-1.76 328.86-1.76 325.42-1.76 322.27-3.03 319.12-4.3 316.85-6.45 314.58-8.59 313.23-11.56 311.87-14.53 311.87-17.77L311.87-17.77 311.87-40.43 313.63-40.43 313.63-17.77Q313.63-13.92 315.68-10.63 317.73-7.35 321.23-5.43 324.74-3.52 328.86-3.52 332.99-3.52 336.49-5.43 340-7.35 342.05-10.63 344.1-13.92 344.1-17.77ZM347.61-17.77L347.61-17.77 347.61-40.43 349.37-40.43 349.37-17.77Q349.37-12.5 346.61-8 343.85-3.49 339.13-0.87 334.41 1.76 328.86 1.76 323.32 1.76 318.6-0.87 313.87-3.49 311.12-8 308.36-12.5 308.36-17.77L308.36-17.77 308.36-40.43 310.11-40.43 310.11-17.77Q310.11-14.18 311.6-10.89 313.09-7.59 315.61-5.21 318.12-2.83 321.6-1.42 325.08 0 328.86 0 332.65 0 336.13-1.42 339.61-2.83 342.12-5.21 344.64-7.59 346.13-10.89 347.61-14.18 347.61-17.77ZM380.72-14.09L380.72-14.09Q380.72-15.04 380.14-15.36 379.57-15.67 378.47-15.67L378.47-15.67 367.14-15.67 367.14-17.43 378.47-17.43Q382.48-17.43 382.48-14.09L382.48-14.09Q382.48-12.21 381.38-11.38 380.28-10.55 378.47-10.55L378.47-10.55 367.14-10.55 367.14-12.3 378.47-12.3Q380.72-12.3 380.72-14.09ZM366.17-28.13L366.17 0 364.41 0 364.41-29.88 378.47-29.88Q380.13-29.88 381.3-28.87 382.48-27.86 382.48-26.34L382.48-26.34Q382.48-24.34 381.38-23.45 380.28-22.56 378.47-22.56L378.47-22.56 367.14-22.56 367.14-24.32 378.47-24.32Q380.72-24.32 380.72-26.34L380.72-26.34Q380.72-27.17 380.08-27.65 379.45-28.13 378.47-28.13L378.47-28.13 366.17-28.13ZM367.14-19.04L367.14-20.8 378.47-20.8Q380.89-20.8 382.56-22.25 384.23-23.71 384.23-26.34L384.23-26.34Q384.23-28.47 382.49-30.05 380.74-31.64 378.47-31.64L378.47-31.64 362.65-31.64 362.65 0 360.89 0 360.89-33.4 378.47-33.4Q381.47-33.4 383.73-31.29 385.99-29.17 385.99-26.34L385.99-26.34Q385.99-24.12 384.95-22.46 383.92-20.8 382.16-19.9L382.16-19.9Q385.99-18.53 385.99-14.33L385.99-14.33Q385.99-11.01 383.79-9.02 381.6-7.03 378.47-7.03L378.47-7.03 367.14-7.03 367.14-8.79 378.47-8.79Q380.89-8.79 382.56-10.24 384.23-11.69 384.23-14.33L384.23-14.33Q384.23-16.11 382.96-17.48 381.69-18.85 379.23-19.07L379.23-19.07Q378.98-19.04 378.47-19.04L378.47-19.04 367.14-19.04ZM389.51-26.34L389.51-26.34Q389.51-22.92 387.09-20.17L387.09-20.17Q389.51-17.48 389.51-14.33L389.51-14.33Q389.51-11.28 387.98-8.78 386.45-6.27 383.93-4.9 381.4-3.52 378.47-3.52L378.47-3.52 367.14-3.52 367.14-5.27 378.47-5.27Q382.28-5.27 385.01-7.82 387.75-10.38 387.75-14.33L387.75-14.33Q387.75-15.75 387.03-17.47 386.31-19.19 385.04-20.09L385.04-20.09Q387.75-22.63 387.75-26.34L387.75-26.34Q387.75-29.91 384.97-32.53 382.18-35.16 378.47-35.16L378.47-35.16 359.14-35.16 359.14 0 357.38 0 357.38-36.91 378.47-36.91Q381.38-36.91 383.93-35.49 386.48-34.06 387.99-31.6 389.51-29.15 389.51-26.34ZM389.09-20.07L389.09-20.07Q391.26-22.97 391.26-26.34L391.26-26.34Q391.26-29.64 389.52-32.48 387.77-35.33 384.82-37 381.86-38.67 378.47-38.67L378.47-38.67 355.62-38.67 355.62 0 353.86 0 353.86-40.43 378.47-40.43Q382.33-40.43 385.69-38.53 389.04-36.62 391.03-33.36 393.02-30.1 393.02-26.34L393.02-26.34Q393.02-22.75 391-20.04L391-20.04Q393.02-17.24 393.02-14.33L393.02-14.33Q393.02-11.06 391.85-8.34 390.68-5.62 388.69-3.81 386.7-2 384.06-1 381.43 0 378.47 0L378.47 0 367.14 0 367.14-1.76 378.47-1.76Q381.03-1.76 383.38-2.72 385.72-3.69 387.46-5.35 389.19-7.01 390.23-9.35 391.26-11.69 391.26-14.33L391.26-14.33Q391.26-15.5 390.71-17.15 390.17-18.8 389.09-20.07Z" opacity="1" transform="matrix(1,0,0,1,0,0)" fill="#8bc53f" class="undefined-text-0" data-fill-palette-color="primary" id="text-0"></path></svg></g></svg></g></svg></g></svg></g><g><svg viewBox="0 0 157.9806790121133 116.44686042733971" height="116.44686042733971" width="157.9806790121133"><g><svg xmlns="http://www.w3.org/2000/svg" xmlns:xlink="http://www.w3.org/1999/xlink" version="1.0" x="0" y="0" viewBox="21.2236328125 28.150390625 56.7763671875 41.849609375" enable-background="new 0 0 100 100" xml:space="preserve" height="116.44686042733971" width="157.9806790121133" class="icon-icon-0" data-fill-palette-color="accent" id="icon-0"><g fill="#5d9943" data-fill-palette-color="accent"><g fill="#5d9943" data-fill-palette-color="accent"><path d="M26.112 40.707c-2.984 0-4.888 4.047-4.888 6.833 0 2.531 1.556 4.388 3.888 4.799V69c0 0.552 0.448 1 1 1s1-0.448 1-1V52.339C29.444 51.927 31 50.07 31 47.54 31 44.754 29.096 40.707 26.112 40.707zM26.112 50.428c-1.396 0-2.888-0.759-2.888-2.888 0-2.213 1.565-4.833 2.888-4.833S29 45.327 29 47.54C29 49.669 27.508 50.428 26.112 50.428z" fill="#5d9943" data-fill-palette-color="accent"></path><path d="M72 42.081c-0.552 0-1 0.448-1 1V69c0 0.552 0.448 1 1 1s1-0.448 1-1V43.081C73 42.529 72.552 42.081 72 42.081z" fill="#5d9943" data-fill-palette-color="accent"></path><path d="M77 42.081c-0.552 0-1 0.448-1 1V69c0 0.552 0.448 1 1 1s1-0.448 1-1V43.081C78 42.529 77.552 42.081 77 42.081z" fill="#5d9943" data-fill-palette-color="accent"></path><path d="M51 28.15c-8.271 0-15 6.729-15 15V69c0 0.552 0.448 1 1 1s1-0.448 1-1V43.15c0-7.168 5.832-13 13-13s13 5.832 13 13V69c0 0.552 0.448 1 1 1s1-0.448 1-1V43.15C66 34.879 59.271 28.15 51 28.15z" fill="#5d9943" data-fill-palette-color="accent"></path><path d="M50 43c-0.552 0-1 0.448-1 1v7c0 0.552 0.448 1 1 1h5.167c0.552 0 1-0.448 1-1s-0.448-1-1-1H51v-6C51 43.448 50.552 43 50 43z" fill="#5d9943" data-fill-palette-color="accent"></path><path d="M59 55H44c-0.552 0-1 0.448-1 1s0.448 1 1 1h3.038c-0.041 1.61 0.09 3.564 0.917 5.06 0.713 1.292 1.979 1.694 3.227 1.025 0.67-0.36 1.083-0.896 1.448-1.368C53.112 61.093 53.319 60.875 53.75 60.875c0.205 0 0.257 0.054 0.28 0.077 0.367 0.376 0.331 1.906 0.307 2.919-0.041 1.741-0.08 3.385 0.907 4.32 0.501 0.475 1.142 0.722 1.806 0.722 0.371 0 0.75-0.077 1.116-0.234C59.263 68.207 60 67.13 60 66V56C60 55.448 59.552 55 59 55zM58 66c0 0.394-0.324 0.712-0.624 0.841-0.204 0.088-0.5 0.141-0.756-0.101-0.341-0.324-0.306-1.827-0.283-2.823 0.039-1.664 0.079-3.385-0.877-4.363C55.158 59.244 54.615 58.875 53.75 58.875c-1.451 0-2.174 0.936-2.702 1.62-0.278 0.359-0.518 0.67-0.813 0.828-0.233 0.125-0.311 0.166-0.529-0.23C49.212 60.2 48.993 58.855 49.041 57H58V66z" fill="#5d9943" data-fill-palette-color="accent"></path><circle cx="43.5" cy="44.5" r="1.5" fill="#5d9943" data-fill-palette-color="accent"></circle><circle cx="57.5" cy="44.5" r="1.5" fill="#5d9943" data-fill-palette-color="accent"></circle></g></g></svg></g></svg></g></svg></g><defs></defs></svg><rect width="395.52" height="81.66128715581702" fill="none" stroke="none" visibility="hidden"></rect></g></svg></g></svg>